<?xml version="1.0" encoding="utf-8"?>
<!-- Generator: Adobe Illustrator 22.1.0, SVG Export Plug-In . SVG Version: 6.00 Build 0)  -->
<svg version="1.1" id="Layer_1" xmlns="http://www.w3.org/2000/svg" xmlns:xlink="http://www.w3.org/1999/xlink" x="0px" y="0px"
	 viewBox="0 0 200 200" style="enable-background:new 0 0 200 200;" xml:space="preserve">
<style type="text/css">
	.st0{fill:#586DE2;}
</style>
<path class="st0" d="M180.7,12.8H19.3c-10.5,0-19,8.5-19,19v114c0,10.5,8.5,19,19,19h60.9l-3.2,19H62c-2.6,0-4.7,2.1-4.7,4.7
	c0,2.6,2.1,4.7,4.7,4.7h19h38c0,0,0.1,0,0.1,0H138c2.6,0,4.7-2.1,4.7-4.7c0-2.6-2.1-4.7-4.7-4.7h-15l-3.2-19h60.9
	c10.5,0,19-8.5,19-19v-114C199.7,21.3,191.2,12.8,180.7,12.8z M86.6,183.7l3.2-19h20.4l3.2,19H86.6z M190.2,145.7
	c0,5.2-4.3,9.5-9.5,9.5h-66.5H85.8H19.3c-5.2,0-9.5-4.3-9.5-9.5v-9.5h180.4V145.7z M86.7,74.5l9.5-14.2h7.6l9.5,14.2H86.7z
	 M114.2,84v42.7h-9.5V84H114.2z M95.3,84v42.7h-9.5V84H95.3z M190.2,126.7h-66.5V74.5c0-0.9-0.3-1.9-0.8-2.6l-19-28.5
	c-1.8-2.6-6.1-2.6-7.9,0l-19,28.5c-0.5,0.8-0.8,1.7-0.8,2.6v52.2H9.8v-95c0-5.2,4.3-9.5,9.5-9.5h161.5c5.2,0,9.5,4.3,9.5,9.5V126.7z
	 M100,150.5c1.2,0,2.5-0.5,3.4-1.4c0.9-0.9,1.4-2.1,1.4-3.4c0-1.2-0.5-2.5-1.4-3.4c-1.8-1.8-5-1.8-6.7,0c-0.9,0.9-1.4,2.1-1.4,3.4
	c0,1.2,0.5,2.5,1.4,3.4C97.5,150,98.8,150.5,100,150.5z"/>
</svg>
