<svg fill="#586de2" xmlns="http://www.w3.org/2000/svg" xmlns:xlink="http://www.w3.org/1999/xlink" version="1.1" x="0px" y="0px" viewBox="0 0 91 91" enable-background="new 0 0 91 91" xml:space="preserve"><g><path d="M62.805,65.647l0.861-0.754c5.576-5.105,8.775-12.373,8.775-19.936c0-14.906-12.139-27.041-27.062-27.051   c-14.912,0.01-27.045,12.145-27.045,27.051c0,7.572,3.212,14.857,8.908,20.066c0.181,0.146,0.426,0.354,0.664,0.57   c4.262,3.887,6.501,8.967,6.911,11.252c0.14,0.77,0.694,1.4,1.44,1.633l13.431,4.207c0.209,0.064,0.42,0.096,0.629,0.096   c0.893,0,1.721-0.576,2.002-1.473c0.348-1.107-0.27-2.285-1.377-2.631l-12.29-3.85c-1.039-3.625-3.883-8.66-7.919-12.342   c-0.308-0.279-0.617-0.543-0.75-0.645c-4.732-4.332-7.447-10.486-7.447-16.885c0-12.592,10.25-22.844,22.845-22.85   c12.607,0.006,22.861,10.258,22.861,22.85c0,6.389-2.701,12.525-7.379,16.807l-0.854,0.752c-4.561,4.154-5.531,6.027-6.658,9.311   c-0.377,1.098,0.207,2.293,1.305,2.668c1.096,0.377,2.291-0.207,2.666-1.303C58.203,70.622,58.766,69.329,62.805,65.647z"></path><path d="M50.316,90.769c0.934,0,1.785-0.629,2.031-1.574c0.291-1.123-0.383-2.27-1.506-2.559l-11.637-3.018   c-1.122-0.291-2.269,0.383-2.56,1.506s0.383,2.27,1.506,2.559L49.787,90.7C49.965,90.745,50.141,90.769,50.316,90.769z"></path><path d="M58.928,38.761c-0.477-0.555-1.209-0.822-1.932-0.705l-4.865,0.791l4.422-6.709c0.475-0.719,0.461-1.658-0.035-2.363   c-0.494-0.705-1.371-1.037-2.209-0.834l-12.069,2.904c-0.666,0.16-1.211,0.635-1.462,1.273l-6.182,15.695   c-0.277,0.703-0.154,1.502,0.32,2.088c0.476,0.59,1.229,0.877,1.975,0.754l4.589-0.756l-2.792,11.836   c-0.228,0.963,0.249,1.955,1.143,2.379c0.289,0.139,0.596,0.203,0.9,0.203c0.636,0,1.258-0.287,1.667-0.82   C60.631,40.743,60.27,40.323,58.928,38.761z M45.051,54.054l1.24-5.256c0.162-0.684-0.029-1.404-0.508-1.916   c-0.4-0.43-0.959-0.668-1.535-0.668c-0.113,0-0.228,0.01-0.342,0.029l-4.047,0.666l4.426-11.236l5.834-1.404l-4.129,6.266   c-0.459,0.697-0.463,1.598-0.01,2.297c0.454,0.699,1.278,1.066,2.1,0.932l5.115-0.832C51.289,45.653,48.326,49.69,45.051,54.054z"></path><path d="M3.124,34.472c-1.16,0-2.1,0.939-2.1,2.1v16.666c0,1.16,0.94,2.1,2.1,2.1h7.543c0.696,2.332,1.629,4.592,2.786,6.744   l-5.332,5.328c-0.395,0.395-0.616,0.928-0.616,1.486c0,0.557,0.221,1.09,0.615,1.484l11.789,11.787c0.82,0.818,2.149,0.818,2.97,0   l6.46-6.459c0.82-0.818,0.82-2.148,0-2.969s-2.149-0.822-2.969,0l-4.976,4.973l-8.818-8.816l4.976-4.973   c0.681-0.68,0.812-1.736,0.32-2.563c-1.61-2.697-2.81-5.602-3.565-8.633c-0.233-0.936-1.074-1.592-2.038-1.592H5.224V38.671h7.044   c0.963,0,1.802-0.654,2.037-1.588c0.765-3.047,1.965-5.951,3.566-8.635c0.492-0.826,0.361-1.881-0.319-2.561l-4.973-4.975   l8.819-8.816l4.975,4.977c0.68,0.68,1.736,0.811,2.563,0.316c2.683-1.604,5.584-2.803,8.625-3.566   c0.933-0.232,1.588-1.072,1.589-2.037l0.003-7.045h12.469l0.002,7.047c0,0.963,0.656,1.801,1.59,2.035   c3.045,0.762,5.947,1.961,8.629,3.566c0.826,0.494,1.883,0.363,2.563-0.316l4.977-4.977l8.816,8.816l-4.973,4.975   c-0.68,0.68-0.813,1.736-0.318,2.561c1.604,2.689,2.803,5.594,3.564,8.633c0.234,0.936,1.074,1.59,2.037,1.59h7.043v12.465h-7.049   c-0.963,0-1.803,0.656-2.035,1.592c-0.762,3.041-1.959,5.945-3.563,8.635c-0.492,0.826-0.359,1.881,0.32,2.561l4.973,4.973   l-8.816,8.816l-4.979-4.975c-0.82-0.818-2.15-0.82-2.971,0.002c-0.82,0.82-0.82,2.15,0.002,2.971l6.461,6.457   c0.412,0.41,0.947,0.613,1.486,0.613c0.537,0,1.074-0.205,1.484-0.615L82.652,70.38c0.395-0.395,0.615-0.928,0.615-1.484   c0-0.559-0.221-1.092-0.615-1.486l-5.33-5.328c1.152-2.148,2.084-4.406,2.781-6.744h7.547c1.16,0,2.1-0.939,2.1-2.1V36.571   c0-1.16-0.939-2.1-2.1-2.1h-7.543c-0.697-2.338-1.631-4.596-2.783-6.744l5.328-5.33c0.818-0.82,0.818-2.148,0-2.969L70.865,7.642   c-0.82-0.818-2.148-0.82-2.971,0l-5.328,5.33c-2.146-1.154-4.406-2.086-6.744-2.785l-0.004-7.545c0-1.16-0.939-2.1-2.1-2.1H37.053   c-1.16,0-2.099,0.939-2.1,2.098l-0.003,7.547c-2.337,0.699-4.594,1.633-6.738,2.785l-5.33-5.33c-0.819-0.818-2.149-0.818-2.97,0   L8.124,19.429c-0.394,0.393-0.615,0.928-0.615,1.484s0.222,1.092,0.615,1.484l5.329,5.33c-1.15,2.146-2.083,4.404-2.784,6.744   H3.124z"></path></g></svg>
