<svg fill="#586de2" xmlns="http://www.w3.org/2000/svg" data-name="Layer 1" viewBox="0 0 100 100" x="0px" y="0px"><title>Artboard 1</title><path d="M51.64,69.6a33.46,33.46,0,0,0,6,.54,32.63,32.63,0,0,0,11.86-2.23l6.81,15.37a11,11,0,0,0,7.13,6.18c.34.1.69.18,1,.24a11.16,11.16,0,0,0,2,.18,11.09,11.09,0,0,0,7.73-19l-12-11.78A33,33,0,1,0,51.64,69.6Zm40.84,9.71a6.08,6.08,0,0,1-7.14,5.47l-.57-.13a6.06,6.06,0,0,1-3.92-3.39L74,65.74c.8-.46,1.58-.95,2.35-1.48s1.51-1.11,2.22-1.69L90.67,74.45A6.06,6.06,0,0,1,92.48,79.31ZM30,32.14a28,28,0,0,1,27.49-23,28.34,28.34,0,0,1,5.05.46A28,28,0,1,1,30,32.14Zm-7,63a2.5,2.5,0,0,0,1.77.73H59.54A6.9,6.9,0,0,0,66.43,89V79.55a2.5,2.5,0,0,0-5,0V89a1.89,1.89,0,0,1-1.89,1.89H27.27v-14a5.75,5.75,0,0,0-5.75-5.75H7.5V19.64a1.89,1.89,0,0,1,1.89-1.89H19.77a2.5,2.5,0,0,0,0-5H9.39A6.9,6.9,0,0,0,2.5,19.64v54a2.5,2.5,0,0,0,.73,1.77Zm-.73-18.29V87.35L11,76.12H21.52A.75.75,0,0,1,22.27,76.87Zm25.32-47.4A9.93,9.93,0,0,1,57.8,19.54a9.93,9.93,0,0,1,4.1,18.84,3.3,3.3,0,0,0-1.88,3v2.41a2.5,2.5,0,0,1-5,0V41.34A8.26,8.26,0,0,1,59.7,33.9a4.93,4.93,0,0,0-2-9.36,4.93,4.93,0,0,0-5.07,4.93,2.5,2.5,0,1,1-5,0ZM60,51.42v.79a2.5,2.5,0,0,1-5,0v-.79a2.5,2.5,0,0,1,5,0Z"></path></svg>
