<svg fill="#586de2" xmlns="http://www.w3.org/2000/svg" xmlns:xlink="http://www.w3.org/1999/xlink" version="1.1" x="0px" y="0px" viewBox="0 0 100 100" enable-background="new 0 0 100 100" xml:space="preserve"><path d="M85.5,7h-71c-6.617,0-12,5.383-12,12v62c0,6.617,5.383,12,12,12h71c6.617,0,12-5.383,12-12V19C97.5,12.383,92.117,7,85.5,7z   M67,11h11v14H67V11z M52,11h11v14H52V11z M37,11h11v14H37V11z M22,11h11v14H22V11z M6.5,19c0-4.411,3.589-8,8-8H18v14H6.5V19z   M18,89h-3.5c-4.411,0-8-3.589-8-8v-6H18V89z M33,89H22V75h11V89z M48,89H37V75h11V89z M63,89H52V75h11V89z M78,89H67V75h11V89z   M93.5,81c0,4.411-3.589,8-8,8H82V75h11.5V81z M93.5,71h-87V29h87V71z M93.5,25H82V11h3.5c4.411,0,8,3.589,8,8V25z M43.848,66.643  c0.263,0.118,0.542,0.176,0.819,0.176c0.48,0,0.955-0.174,1.329-0.505l16.666-14.818c0.427-0.38,0.671-0.924,0.671-1.495  s-0.244-1.115-0.671-1.495L45.996,33.687c-0.59-0.523-1.431-0.652-2.148-0.329c-0.719,0.322-1.181,1.036-1.181,1.824v29.637  C42.667,65.606,43.129,66.32,43.848,66.643z M46.667,39.636L58.323,50L46.667,60.364V39.636z"/></svg>
