<?xml version="1.0" encoding="utf-8"?>
<!-- Generator: Adobe Illustrator 22.1.0, SVG Export Plug-In . SVG Version: 6.00 Build 0)  -->
<svg version="1.1" id="Layer_1" xmlns="http://www.w3.org/2000/svg" xmlns:xlink="http://www.w3.org/1999/xlink" x="0px" y="0px"
	 viewBox="0 0 96 96" style="enable-background:new 0 0 96 96;" xml:space="preserve">
<style type="text/css">
	.st0{fill:#586DE2;}
</style>
<path class="st0" d="M45.4,16.7h-42c-1.8,0-3.3-1.5-3.3-3.3S1.5,10,3.3,10h42c0.3-4.1,3.8-7.3,8-7.3c4.2,0,7.6,3.2,8,7.3h31.4
	c1.8,0,3.3,1.5,3.3,3.3s-1.5,3.3-3.3,3.3H61.3c-0.3,4.1-3.8,7.3-8,7.3C49.1,24,45.7,20.8,45.4,16.7z M50.7,16.6
	c0.3,1.2,1.3,2.1,2.6,2.1c1.3,0,2.3-0.9,2.6-2c0-0.2,0.1-0.4,0.1-0.6v-5.3c0-0.2,0-0.4-0.1-0.6C55.7,8.9,54.6,8,53.3,8
	c-1.3,0-2.3,0.9-2.6,2c0,0.2-0.1,0.4-0.1,0.6V16C50.7,16.2,50.7,16.4,50.7,16.6z"/>
<path class="st0" d="M64,51.3H3.3C1.5,51.3,0,49.8,0,48c0-1.8,1.5-3.3,3.3-3.3H64c0.3-4.1,3.8-7.3,8-7.3s7.6,3.2,8,7.3h12.7
	c1.8,0,3.3,1.5,3.3,3.3c0,1.8-1.5,3.3-3.3,3.3H80c-0.3,4.1-3.8,7.3-8,7.3S64.4,55.4,64,51.3z M69.3,45.3v5.4c0,1.5,1.2,2.6,2.7,2.6
	c1.5,0,2.6-1.2,2.7-2.6v-5.4c0-1.5-1.2-2.6-2.7-2.6C70.5,42.7,69.4,43.8,69.3,45.3z"/>
<path class="st0" d="M32,86H3.3C1.5,86,0,84.5,0,82.7s1.5-3.3,3.3-3.3H32c0.3-4.1,3.8-7.3,8-7.3s7.6,3.2,8,7.3h44.7
	c1.8,0,3.3,1.5,3.3,3.3S94.5,86,92.7,86H48c-0.3,4.1-3.8,7.3-8,7.3S32.4,90.1,32,86z M37.3,80v5.4c0,1.5,1.2,2.6,2.7,2.6
	c1.5,0,2.6-1.2,2.7-2.6V80c0-1.5-1.2-2.6-2.7-2.6C38.5,77.3,37.4,78.5,37.3,80z"/>
</svg>
