<?xml version="1.0" standalone="no"?>
<!DOCTYPE svg PUBLIC "-//W3C//DTD SVG 20010904//EN"
 "http://www.w3.org/TR/2001/REC-SVG-20010904/DTD/svg10.dtd">
<svg version="1.0" xmlns="http://www.w3.org/2000/svg"
 width="751.000000pt" height="751.000000pt" viewBox="0 0 751.000000 751.000000"
 preserveAspectRatio="xMidYMid meet">
<metadata>
Created by potrace 1.11, written by Peter Selinger 2001-2013
</metadata>
<g transform="translate(0.000000,751.000000) scale(0.100000,-0.100000)"
fill="#000000" stroke="none">
<path d="M0 3755 l0 -3755 3755 0 3755 0 0 3755 0 3755 -3755 0 -3755 0 0
-3755z m2268 2353 c26 -12 57 -39 78 -67 19 -25 337 -480 707 -1010 369 -530
677 -966 682 -967 6 -2 307 442 670 987 363 545 676 1006 696 1024 59 53 118
64 238 44 110 -19 173 -68 216 -171 14 -34 13 -232 -5 -2080 -27 -2773 -21
-2485 -47 -2534 -30 -56 -93 -111 -145 -124 -84 -23 -181 9 -237 77 -17 21
-632 900 -1367 1953 -734 1053 -1339 1917 -1345 1918 -5 2 -9 -54 -10 -140 0
-78 -8 -932 -18 -1897 l-18 -1754 -60 -57 c-139 -131 -265 -146 -355 -41 -74
87 -70 -117 -45 2416 25 2481 19 2299 82 2373 66 78 180 98 283 50z"/>
<path d="M4541 4436 c-349 -523 -521 -789 -515 -798 18 -30 998 -1434 1010
-1448 12 -12 14 -3 14 60 0 41 7 692 15 1445 17 1641 17 1525 7 1525 -5 0
-244 -353 -531 -784z"/>
</g>
</svg>
