<svg height='200' width='200'  fill="#000000" xmlns="http://www.w3.org/2000/svg" xmlns:xlink="http://www.w3.org/1999/xlink" xmlns:sketch="http://www.bohemiancoding.com/sketch/ns" viewBox="0 0 30 30" version="1.1" x="0px" y="0px"><title>chat_017-conversation-talk-bubble-communication-message</title><desc>Created with Sketch.</desc><g stroke="none" stroke-width="1" fill="none" fill-rule="evenodd" sketch:type="MSPage"><g sketch:type="MSArtboardGroup" transform="translate(-315.000000, -90.000000)" fill="#000000"><g sketch:type="MSLayerGroup" transform="translate(315.000000, 92.000000)"><path d="M28.0020798,16.4290541 C27.9102591,16.8155681 27.7809776,17.1910497 27.6155898,17.5499992 L29.8043879,20.6618966 C30.0677973,21.035522 29.7330859,21.5375164 29.2869029,21.4380116 L25.2041905,20.5275126 C23.7619469,21.6841431 21.4410033,22.5 19.0320996,22.5 C14.00664,22.5 9.89573595,19.1680041 9.89573595,15 C9.89573595,10.8319959 14.00664,7.5 19.0320996,7.5 C19.485189,7.5 19.9308444,7.5270845 20.3667232,7.57942427 C20.2917456,7.90248544 20.2418486,8.23273005 20.2187538,8.5686695 C19.831619,8.5234386 19.4354184,8.5 19.0320996,8.5 C14.5180954,8.5 10.8957359,11.4360176 10.8957359,15 C10.8957359,18.5639824 14.5180954,21.5 19.0320996,21.5 C21.2178233,21.5 23.2626142,20.8070555 24.7775683,19.5987261 C24.8958548,19.5043806 25.050501,19.4686721 25.1981768,19.5016058 L28.239374,20.1798331 L26.6365478,17.9040534 C26.5306845,17.7538946 26.5156998,17.5577732 26.5975218,17.3932743 C26.7785532,17.0293199 26.9176262,16.6533012 27.0131728,16.2685993 C27.3373494,16.3370172 27.6673958,16.3906948 28.0020798,16.4290541 Z" sketch:type="MSShapeGroup" transform="translate(19.896590, 15.000000) scale(-1, 1) translate(-19.896590, -15.000000) "></path><path d="M3.03493207,11.9278645 L0.586886329,15.5183316 C0.330524659,15.8943287 0.668911247,16.3894704 1.11235089,16.2872138 L5.63822358,15.2460664 C7.4796555,16.6855744 9.89289283,17.5 12.4545455,17.5 C17.9848772,17.5 22.5,13.715897 22.5,9 C22.5,4.28410295 17.9848772,0.5 12.4545455,0.5 C6.92421375,0.5 2.40909091,4.28410295 2.40909091,9 C2.40909091,10.11358 2.66400157,11.1881714 3.03493207,11.9278645 Z M12.4545455,1.5 C17.4678317,1.5 21.5,4.87934105 21.5,9 C21.5,13.120659 17.4678317,16.5 12.4545455,16.5 C10.0301569,16.5 7.76103951,15.7048799 6.0778263,14.3166823 C5.9579073,14.2177814 5.7988119,14.1802782 5.64734575,14.2152061 L2.14275978,15.0200005 L4.01107474,12.2713255 C4.11166349,12.1237953 4.12594357,11.9338206 4.04853971,11.772911 C3.6276388,10.8979289 3.40909091,9.96169876 3.40909091,9 C3.40909091,4.87934105 7.44125921,1.5 12.4545455,1.5 Z" sketch:type="MSShapeGroup" transform="translate(11.499154, 9.000000) scale(-1, 1) translate(-11.499154, -9.000000) "></path><circle sketch:type="MSShapeGroup" cx="6" cy="9" r="1"></circle><circle sketch:type="MSShapeGroup" cx="10.5" cy="9" r="1"></circle><circle sketch:type="MSShapeGroup" cx="15" cy="9" r="1"></circle></g></g></g></svg>