<svg height='200' width='200'  fill="#000000" xmlns="http://www.w3.org/2000/svg" xmlns:xlink="http://www.w3.org/1999/xlink" version="1.1" x="0px" y="0px" viewBox="0 0 100 100" enable-background="new 0 0 100 100" xml:space="preserve"><path d="M94.125,55.342c-0.372-0.932-0.987-1.685-1.767-2.245V25.74c0.147-0.559,0.058-1.16-0.28-1.646l-5.937-8.563  c-0.374-0.539-0.988-0.86-1.644-0.86H29.531c-0.677,0-1.308,0.342-1.677,0.91l-5.567,8.563c-0.009,0.015-0.013,0.031-0.022,0.046  c-0.073,0.119-0.133,0.247-0.18,0.382c-0.016,0.044-0.029,0.087-0.041,0.132c-0.032,0.117-0.053,0.238-0.063,0.362  c-0.003,0.041-0.012,0.081-0.013,0.122c0,0.016-0.004,0.03-0.004,0.046v20.344H10.281c-2.095,0-3.8,1.708-3.8,3.807v32.394  c0,2.095,1.705,3.799,3.8,3.799h13.234c2.057,0,3.728-1.646,3.789-3.688l32.713,4.315c0.015,0.001,0.106,0.009,0.122,0.01  l0.787,0.055c0.947,0.069,1.927,0.14,2.934,0.14c0.383,0,0.767-0.01,1.152-0.034c3.784-0.23,5.55-1.875,7.595-3.781  c0.381-0.355,0.784-0.731,1.229-1.123c0.026-0.022,0.051-0.046,0.075-0.069l16.275-15.905  C95.418,60.533,94.684,56.741,94.125,55.342z M86.615,23.233H68.003l-0.986-4.563h16.434L86.615,23.233z M52.221,27.233h11.88  v10.913l-5.241-3.813c-0.352-0.256-0.765-0.383-1.177-0.383c-0.451,0-0.901,0.152-1.269,0.454l-4.193,3.442V27.233z M53.463,18.67  h9.461l0.986,4.563H52.623L53.463,18.67z M30.616,18.67h18.78l-0.841,4.563H27.649L30.616,18.67z M23.315,50.929  c0,0.021-0.006,0.042-0.006,0.064l0.006,6.48v24.104H10.481v-32h12.834V50.929z M27.246,48.698  c-0.003-0.018-0.011-0.034-0.014-0.051c-0.022-0.107-0.056-0.209-0.086-0.314c-0.043-0.148-0.09-0.292-0.15-0.433  c-0.037-0.084-0.076-0.166-0.118-0.248c-0.083-0.161-0.176-0.312-0.28-0.458c-0.04-0.055-0.075-0.112-0.117-0.166  c-0.156-0.198-0.326-0.385-0.518-0.548V27.233h22.257v14.842c0,0.773,0.446,1.478,1.145,1.808c0.272,0.129,0.564,0.192,0.854,0.192  c0.455,0,0.905-0.155,1.27-0.454l6.267-5.144l7.167,5.215c0.609,0.443,1.416,0.507,2.084,0.165c0.67-0.341,1.093-1.03,1.093-1.782  V27.233h20.258v24.798c-2.148,0.111-4.433,1.075-6.636,2.826L68.976,64.992c-0.409,0.324-0.737,0.569-1.031,0.774  c0.304-1.211,0.29-2.411-0.047-3.583c-0.763-2.598-3.009-4.452-4.607-5.601l-10.64-7.918c-1.014-0.729-2.299-1.275-3.924-1.669  c-1.508-0.372-4.158-0.744-5.833-0.507L27.246,48.698z M87.411,62.616l-16.26,15.89c-0.458,0.406-0.876,0.794-1.271,1.162  c-1.838,1.712-2.761,2.572-5.112,2.715c-1.174,0.072-2.315-0.012-3.553-0.103l-0.759-0.051l-33.122-4.37l-0.019-20.318v-4.813  l16.139-2.281c0.205-0.029,0.456-0.043,0.745-0.043c1.216,0,2.683,0.255,3.577,0.476c1.106,0.269,1.96,0.616,2.513,1.013  l10.64,7.917c1.145,0.824,2.715,2.083,3.127,3.489c0.17,0.593,0.133,1.212-0.111,1.883c-0.255,0.277-1.125,0.835-1.929,0.835  c-0.153,0-0.289-0.021-0.412-0.062c-0.204-0.131-0.396-0.251-0.576-0.359c-0.005-0.003-0.01-0.006-0.015-0.009c0,0,0,0,0,0  c-0.001,0-0.001-0.001-0.002-0.001c-0.022-0.013-0.044-0.025-0.067-0.038c-1.04-0.573-10.404-5.364-12.24-6.294  c-0.982-0.497-2.184-0.106-2.686,0.875c-0.501,0.982-0.112,2.185,0.868,2.688L58.914,69c0.247,0.185,0.508,0.346,0.78,0.482  l0.045,0.029c1.438,0.929,3.406,2.202,5.33,2.202c0.875,0,1.685-0.264,2.337-0.758c0.73-0.55,1.205-0.851,1.708-1.17  c0.633-0.401,1.287-0.816,2.35-1.661l12.747-10.134c2.167-1.722,3.787-1.979,4.56-1.979c0.491,0,1.357,0.106,1.639,0.814  C90.835,57.888,90.079,60.085,87.411,62.616z"></path></svg>