<?xml version="1.0" encoding="utf-8"?>
<!-- Generator: Adobe Illustrator 22.1.0, SVG Export Plug-In . SVG Version: 6.00 Build 0)  -->
<svg version="1.1" id="Layer_1" xmlns:sketch="http://www.bohemiancoding.com/sketch/ns"
	 xmlns="http://www.w3.org/2000/svg" xmlns:xlink="http://www.w3.org/1999/xlink" x="0px" y="0px" viewBox="0 0 200 200"
	 style="enable-background:new 0 0 200 200;" xml:space="preserve">
<style type="text/css">
	.st0{fill:#41B8E4;}
</style>
<title>chat_017-conversation-talk-bubble-communication-message</title>
<desc>Created with Sketch.</desc>
<g sketch:type="MSPage">
	<g transform="translate(-315.000000, -90.000000)" sketch:type="MSArtboardGroup">
		<g transform="translate(315.000000, 92.000000)" sketch:type="MSLayerGroup">
			<path sketch:type="MSShapeGroup" class="st0" d="M78.6,120.9c0.6,2.6,1.5,5.1,2.6,7.5l-14.6,20.7c-1.8,2.5,0.5,5.8,3.4,5.2
				l27.2-6.1c9.6,7.7,25.1,13.1,41.1,13.1c33.5,0,60.9-22.2,60.9-50s-27.4-50-60.9-50c-3,0-6,0.2-8.9,0.5c0.5,2.2,0.8,4.4,1,6.6
				c2.6-0.3,5.2-0.5,7.9-0.5c30.1,0,54.2,19.6,54.2,43.3s-24.1,43.3-54.2,43.3c-14.6,0-28.2-4.6-38.3-12.7c-0.8-0.6-1.8-0.9-2.8-0.6
				L77,145.9l10.7-15.2c0.7-1,0.8-2.3,0.3-3.4c-1.2-2.4-2.1-4.9-2.8-7.5C83,120.2,80.8,120.6,78.6,120.9z"/>
			<path sketch:type="MSShapeGroup" class="st0" d="M133.1,90.9l16.3,23.9c1.7,2.5-0.5,5.8-3.5,5.1l-30.2-6.9
				c-12.3,9.6-28.4,15-45.4,15c-36.9,0-67-25.2-67-56.7s30.1-56.7,67-56.7s67,25.2,67,56.7C137.3,78.8,135.6,85.9,133.1,90.9z
				 M70.3,21.3c-33.4,0-60.3,22.5-60.3,50s26.9,50,60.3,50c16.2,0,31.3-5.3,42.5-14.6c0.8-0.7,1.9-0.9,2.9-0.7l23.4,5.4l-12.5-18.3
				c-0.7-1-0.8-2.3-0.2-3.3c2.8-5.8,4.3-12.1,4.3-18.5C130.6,43.9,103.7,21.3,70.3,21.3z"/>
			<circle sketch:type="MSShapeGroup" class="st0" cx="40" cy="71.3" r="6.7">
			</circle>
			<circle sketch:type="MSShapeGroup" class="st0" cx="70" cy="71.3" r="6.7">
			</circle>
			<circle sketch:type="MSShapeGroup" class="st0" cx="100" cy="71.3" r="6.7">
			</circle>
		</g>
	</g>
</g>
</svg>
