<svg xmlns="http://www.w3.org/2000/svg" viewBox="0 0 356.52 234.46"><defs><style>.cls-1{opacity:0.5;isolation:isolate;}.cls-2{fill:#ee9f35;}.cls-3{fill:#eb8a33;}.cls-4{fill:#7f7f7f;}</style></defs><title>coinjar_logo</title><g id="Layer_2" data-name="Layer 2"><g id="Layer_1-2" data-name="Layer 1"><path class="cls-1" d="M256.78,79.65h-158L87.14,101.9H268.39L256.78,79.65"/><path class="cls-2" d="M245.72,68a68,68,0,1,1-68-68,68,68,0,0,1,68,68"/><path class="cls-3" d="M118.88,101.9a68,68,0,0,0,117.77,0H118.88"/><path class="cls-4" d="M29.4,176.38c-17.28,0-29.4,12.2-29.4,29s12.12,29,29.4,29c10.28,0,18.6-4.56,23.64-11.84l-9.12-6.56a17,17,0,0,1-14.6,7.68c-9.88,0-17.68-7.08-17.68-18.32,0-10.88,7.56-18.32,17.68-18.32a16.76,16.76,0,0,1,14.48,7.72l9.6-5.88c-4.6-7.8-13.64-12.56-24-12.56Zm58.14,0c-17.28,0-29.4,12.28-29.4,29s12.12,29,29.4,29,29.44-12.28,29.44-29-12.2-29-29.44-29Zm0,10.72c10.36,0,17.76,7.44,17.76,18.32s-7.4,18.32-17.76,18.32-17.76-7.44-17.76-18.32,7.48-18.32,17.76-18.32Zm49.54,46.32v-56H125.92v56Zm61.7,0v-56h-11.2v37.4l-28.44-37.4H148.7v56h11.16l0-37.4,28.4,37.4ZM243.16,213v-35.6H232V212c0,8.12-3.52,11.76-9.44,11.76a13.6,13.6,0,0,1-10.88-5.2l-6.48,8.12c3,3.72,8.64,7.76,17.88,7.76,11.68,0,20.08-7.32,20.08-21.4Zm63,20.4-21.8-56h-13.6l-21.8,56h11.64l4.88-13h23.88l4.88,13ZM269.3,210.1l8.12-21.64,8.08,21.64Zm66.62-32.68H312.24v56H323.4V211.14h3.28L343,233.42h13.52L339.28,211c10.76-1.08,17.16-7.32,17.16-16.52C356.44,183.74,349.28,177.42,335.92,177.42ZM323.4,187.7h12.32c6,0,9.24,2.08,9.24,6.76s-3.12,7-9.24,7H323.4Z"/></g></g></svg>