<?xml version="1.0" encoding="utf-8"?>
<!-- Generator: Adobe Illustrator 22.1.0, SVG Export Plug-In . SVG Version: 6.00 Build 0)  -->
<svg version="1.1" id="Layer_1" xmlns="http://www.w3.org/2000/svg" xmlns:xlink="http://www.w3.org/1999/xlink" x="0px" y="0px"
	 viewBox="0 0 200 200" style="enable-background:new 0 0 200 200;" xml:space="preserve">
<style type="text/css">
	.st0{fill:none;stroke:#41B8E4;stroke-width:7;stroke-linecap:round;stroke-linejoin:round;stroke-miterlimit:10;}
</style>
<g>
	<circle class="st0" cx="100.3" cy="62" r="23.1"/>
	<path class="st0" d="M144.2,126.7c0-14.6-7.1-27.5-18.1-35.5c-5.8,7.9-15.2,13.1-25.8,13.1s-20-5.2-25.8-13.1
		c-11,8-18.1,20.9-18.1,35.5c0,1.4,0.1,33,0.2,34.4H144C144.1,159.7,144.2,128.2,144.2,126.7z"/>
	<circle class="st0" cx="37.6" cy="74.7" r="17.6"/>
	<path class="st0" d="M61.4,104.3c-1.3-1.3-2.7-2.5-4.2-3.6c-4.4,6-11.6,10-19.6,10c-8.1,0-15.2-3.9-19.6-10
		c-8.3,6.1-13.8,15.9-13.8,27c0,1.1,0.1,17.2,0.2,18.3h45.3h5.6"/>
	<circle class="st0" cx="162.4" cy="74.7" r="17.6"/>
	<path class="st0" d="M138.6,104.3c1.3-1.3,2.7-2.5,4.2-3.6c4.4,6,11.6,10,19.6,10c8.1,0,15.2-3.9,19.6-10
		c8.3,6.1,13.8,15.9,13.8,27c0,1.1-0.1,17.2-0.2,18.3h-45.3h-5.6"/>
</g>
</svg>
