<?xml version="1.0" encoding="utf-8"?>
<!-- Generator: Adobe Illustrator 22.1.0, SVG Export Plug-In . SVG Version: 6.00 Build 0)  -->
<svg version="1.1" id="Layer_1" xmlns="http://www.w3.org/2000/svg" xmlns:xlink="http://www.w3.org/1999/xlink" x="0px" y="0px"
	 viewBox="0 0 200 200" style="enable-background:new 0 0 200 200;" xml:space="preserve">
<style type="text/css">
	.st0{fill:#41B8E4;}
</style>
<path class="st0" d="M188.2,110.7c-0.7-1.9-2-3.4-3.5-4.5V51.5c0.3-1.1,0.1-2.3-0.6-3.3l-11.9-17.1c-0.7-1.1-2-1.7-3.3-1.7H59.1
	c-1.4,0-2.6,0.7-3.4,1.8L44.6,48.3c0,0,0,0.1,0,0.1c-0.1,0.2-0.3,0.5-0.4,0.8c0,0.1-0.1,0.2-0.1,0.3C44,49.6,44,49.9,44,50.1
	c0,0.1,0,0.2,0,0.2c0,0,0,0.1,0,0.1v40.7H20.6c-4.2,0-7.6,3.4-7.6,7.6v64.8c0,4.2,3.4,7.6,7.6,7.6H47c4.1,0,7.5-3.3,7.6-7.4
	l65.4,8.6c0,0,0.2,0,0.2,0l1.6,0.1c1.9,0.1,3.9,0.3,5.9,0.3c0.8,0,1.5,0,2.3-0.1c7.6-0.5,11.1-3.8,15.2-7.6c0.8-0.7,1.6-1.5,2.5-2.2
	c0.1,0,0.1-0.1,0.1-0.1l32.6-31.8C190.8,121.1,189.4,113.5,188.2,110.7z M173.2,46.5H136l-2-9.1h32.9L173.2,46.5z M104.4,54.5h23.8
	v21.8l-10.5-7.6c-0.7-0.5-1.5-0.8-2.4-0.8c-0.9,0-1.8,0.3-2.5,0.9l-8.4,6.9C104.4,75.7,104.4,54.5,104.4,54.5z M106.9,37.3h18.9
	l2,9.1h-22.6L106.9,37.3z M61.2,37.3h37.6l-1.7,9.1H55.3L61.2,37.3z M46.6,101.9c0,0,0,0.1,0,0.1l0,13v48.2H21v-64h25.7
	C46.6,99.2,46.6,101.9,46.6,101.9z M54.5,97.4c0,0,0-0.1,0-0.1c0-0.2-0.1-0.4-0.2-0.6c-0.1-0.3-0.2-0.6-0.3-0.9
	c-0.1-0.2-0.2-0.3-0.2-0.5c-0.2-0.3-0.4-0.6-0.6-0.9c-0.1-0.1-0.2-0.2-0.2-0.3c-0.3-0.4-0.7-0.8-1-1.1V54.5h44.5v29.7
	c0,1.5,0.9,3,2.3,3.6c0.5,0.3,1.1,0.4,1.7,0.4c0.9,0,1.8-0.3,2.5-0.9L115.5,77l14.3,10.4c1.2,0.9,2.8,1,4.2,0.3
	c1.3-0.7,2.2-2.1,2.2-3.6V54.5h40.5v49.6c-4.3,0.2-8.9,2.2-13.3,5.7L138,130c-0.8,0.6-1.5,1.1-2.1,1.5c0.6-2.4,0.6-4.8-0.1-7.2
	c-1.5-5.2-6-8.9-9.2-11.2l-21.3-15.8c-2-1.5-4.6-2.6-7.8-3.3c-3-0.7-8.3-1.5-11.7-1L54.5,97.4z M174.8,125.2L142.3,157
	c-0.9,0.8-1.8,1.6-2.5,2.3c-3.7,3.4-5.5,5.1-10.2,5.4c-2.3,0.1-4.6,0-7.1-0.2l-1.5-0.1l-66.2-8.7l0-40.6v-9.6l32.3-4.6
	c0.4-0.1,0.9-0.1,1.5-0.1c2.4,0,5.4,0.5,7.2,1c2.2,0.5,3.9,1.2,5,2l21.3,15.8c2.3,1.6,5.4,4.2,6.3,7c0.3,1.2,0.3,2.4-0.2,3.8
	c-0.5,0.6-2.2,1.7-3.9,1.7c-0.3,0-0.6,0-0.8-0.1c-0.4-0.3-0.8-0.5-1.2-0.7c0,0,0,0,0,0l0,0c0,0,0,0,0,0c0,0-0.1-0.1-0.1-0.1
	c-2.1-1.1-20.8-10.7-24.5-12.6c-2-1-4.4-0.2-5.4,1.8c-1,2-0.2,4.4,1.7,5.4l24.1,12.4c0.5,0.4,1,0.7,1.6,1l0.1,0.1
	c2.9,1.9,6.8,4.4,10.7,4.4c1.8,0,3.4-0.5,4.7-1.5c1.5-1.1,2.4-1.7,3.4-2.3c1.3-0.8,2.6-1.6,4.7-3.3l25.5-20.3c4.3-3.4,7.6-4,9.1-4
	c1,0,2.7,0.2,3.3,1.6C181.7,115.8,180.2,120.2,174.8,125.2z"/>
</svg>
