<?xml version="1.0" encoding="utf-8"?>
<!-- Generator: Adobe Illustrator 22.1.0, SVG Export Plug-In . SVG Version: 6.00 Build 0)  -->
<svg version="1.1" id="Layer_1" xmlns="http://www.w3.org/2000/svg" xmlns:xlink="http://www.w3.org/1999/xlink" x="0px" y="0px"
	 viewBox="0 0 200 200" style="enable-background:new 0 0 200 200;" xml:space="preserve">
<style type="text/css">
	.st0{fill:#41B8E4;stroke:#41B8E4;stroke-width:3;stroke-miterlimit:10;}
	.st1{fill:#41B8E4;}
</style>
<path class="st0" d="M0,25v150h200V25H0z M196,171H4V29h192V171z"/>
<path class="st1" d="M70,60.5H30v40h40V60.5z M66,96.5H34v-32h32V96.5z"/>
<path class="st1" d="M170,60.5h-40v40h40V60.5z M166,96.5h-32v-32h32V96.5z"/>
<path class="st1" d="M155,110.5c0-2.8-2.2-5-5-5s-5,2.2-5,5s2.2,5,5,5S155,113.3,155,110.5z M148,110.5c0-1.1,0.9-2,2-2s2,0.9,2,2
	s-0.9,2-2,2S148,111.6,148,110.5z"/>
<circle class="st1" cx="100" cy="110.5" r="5"/>
<path class="st1" d="M55,110.5c0-2.8-2.2-5-5-5s-5,2.2-5,5s2.2,5,5,5S55,113.3,55,110.5z M48,110.5c0-1.1,0.9-2,2-2s2,0.9,2,2
	s-0.9,2-2,2S48,111.6,48,110.5z"/>
<rect x="35" y="126.5" class="st1" width="30" height="4"/>
<rect x="40" y="135.5" class="st1" width="20" height="4"/>
<rect x="85" y="126.5" class="st1" width="30" height="4"/>
<rect x="90" y="135.5" class="st1" width="20" height="4"/>
<rect x="135" y="126.5" class="st1" width="30" height="4"/>
<rect x="140" y="135.5" class="st1" width="20" height="4"/>
<path class="st1" d="M120,60.5H80v40h40V60.5z M96.7,88.9l-7.4-7.4l2.8-2.8l4.6,4.6l11.2-11.2l2.8,2.8L96.7,88.9z"/>
</svg>
