<?xml version="1.0" encoding="utf-8"?>
<!-- Generator: Adobe Illustrator 22.1.0, SVG Export Plug-In . SVG Version: 6.00 Build 0)  -->
<svg version="1.1"
	 id="Layer_1" xmlns:cc="http://creativecommons.org/ns#" xmlns:dc="http://purl.org/dc/elements/1.1/" xmlns:inkscape="http://www.inkscape.org/namespaces/inkscape" xmlns:rdf="http://www.w3.org/1999/02/22-rdf-syntax-ns#" xmlns:sodipodi="http://sodipodi.sourceforge.net/DTD/sodipodi-0.dtd" xmlns:svg="http://www.w3.org/2000/svg"
	 xmlns="http://www.w3.org/2000/svg" xmlns:xlink="http://www.w3.org/1999/xlink" x="0px" y="0px" viewBox="0 0 200 200"
	 style="enable-background:new 0 0 200 200;" xml:space="preserve">
<style type="text/css">
	.st0{fill:#41B8E4;}
</style>
<g transform="translate(0,-952.36218)">
	<path class="st0" d="M100,984.4c-14.3,0-28.7,5.5-39.6,16.4c-8.1,8.1-13,18.2-15.1,28.7C24.1,1033.5,8,1052,8,1074.4
		c0,25.3,20.7,46,46,46h98c22.1,0,40-17.9,40-40c0-20.8-16-37.8-36.4-39.6c0.1-14.5-5-29-16.1-40C128.7,989.8,114.3,984.4,100,984.4
		z M100,996.4c11.3,0,22.4,4.2,31.1,12.8c10,10,14.2,23.5,12.6,36.4c-0.4,3.3,1.9,6.3,5.2,6.7c0.2,0,0.5,0,0.7,0h2.4
		c15.6,0,28,12.4,28,28c0,15.6-12.4,28-28,28H54c-18.8,0-34-15.2-34-34c0-17.8,13.5-32.3,30.9-33.9c2.8-0.3,5-2.5,5.4-5.2
		c1.1-9.5,5.3-18.7,12.6-26.1C77.5,1000.6,88.7,996.4,100,996.4z M100,1032.4c-2,0-3.1,0.6-4.1,1.6l-22,20c-2.5,2.4-2.5,6.2-0.4,8.5
		c2.1,2.3,6.2,2.5,8.5,0.4l11.9-10.9v38.4c0,3.3,2.7,6,6,6c3.3,0,6-2.7,6-6v-38.4l11.9,10.9c2.3,2.1,6.3,1.8,8.5-0.4
		c2.4-2.3,1.9-6.4-0.4-8.5l-22-20C102.9,1032.8,102,1032.4,100,1032.4z"/>
</g>
</svg>
