<svg height='200' width='200'  fill="#ffffff" xmlns="http://www.w3.org/2000/svg" xmlns:xlink="http://www.w3.org/1999/xlink" version="1.1" x="0px" y="0px" viewBox="0 0 100 100" style="enable-background:new 0 0 100 100;" xml:space="preserve"><path d="M94.5,63.5V48.8c0-24.6-20-44.5-44.5-44.5S5.5,24.2,5.5,48.8v14.7c-0.7,1.8-1.2,3.7-1.2,5.8v7.2c0,7,4.9,12.8,11.6,14.2  c1.3,3,4.3,5.1,7.7,5.1c4.7,0,8.4-3.7,8.4-8.4V58.4c0-4.7-3.7-8.4-8.4-8.4c-3.5,0-6.5,2.2-7.7,5.1c-2,0.4-3.9,1.3-5.5,2.4v-8.7  C10.3,26.9,28.1,9.1,50,9.1s39.7,17.8,39.7,39.7v8.8c-1.6-1.2-3.5-2-5.5-2.4C83,52.2,80,50,76.5,50c-4.7,0-8.4,3.7-8.4,8.4v28.9  c0,4.7,3.7,8.4,8.4,8.4c3.5,0,6.5-2.2,7.7-5.1c6.6-1.3,11.6-7.2,11.6-14.2v-7.2C95.8,67.2,95.3,65.3,94.5,63.5z M19.9,58.4  c0-2,1.6-3.6,3.6-3.6s3.6,1.6,3.6,3.6v28.9c0,2-1.6,3.6-3.6,3.6s-3.6-1.6-3.6-3.6V58.4z M15.1,60.4v25c-3.5-1.4-6-4.9-6-8.9v-7.2  C9.1,65.3,11.6,61.8,15.1,60.4z M80.1,87.3c0,2-1.6,3.6-3.6,3.6s-3.6-1.6-3.6-3.6V58.4c0-2,1.6-3.6,3.6-3.6s3.6,1.6,3.6,3.6V87.3z   M90.9,76.5c0,4-2.5,7.5-6,8.9v-25c3.5,1.4,6,4.9,6,8.9V76.5z"></path></svg>