<svg height='200' width='200'  fill="#ffffff" xmlns="http://www.w3.org/2000/svg" xmlns:xlink="http://www.w3.org/1999/xlink" xml:space="preserve" version="1.1" style="shape-rendering:geometricPrecision;text-rendering:geometricPrecision;image-rendering:optimizeQuality;" viewBox="0 0 0.768 0.553" x="0px" y="0px" fill-rule="evenodd" clip-rule="evenodd"><defs><style type="text/css">
   
    .fil0 {fill:#ffffff;fill-rule:nonzero}
   
  </style></defs><g><path class="fil0" d="M0.12 0.072c0.064,0 0.126,-0.007 0.184,-0.018 0.07,-0.013 0.136,-0.032 0.193,-0.053 0.013,-0.004 0.026,0.002 0.031,0.015 0.001,0.003 0.001,0.005 0.001,0.008l0 0 0 0.385c0,0.013 -0.01,0.024 -0.024,0.024 -0.003,0 -0.007,-0.001 -0.01,-0.002 -0.057,-0.021 -0.122,-0.039 -0.191,-0.052 -0.017,-0.004 -0.035,-0.007 -0.054,-0.009l0.042 0.153c0.003,0.013 -0.004,0.026 -0.017,0.03 -0.002,0 -0.004,0 -0.006,0l-0.096 0c-0.012,0 -0.022,-0.008 -0.024,-0.019l-0.047 -0.173 -0.078 0c-0.013,0 -0.024,-0.011 -0.024,-0.024l0 -0.241c0,-0.013 0.011,-0.024 0.024,-0.024l0.096 0 0 0zm0.458 -0.058c0.051,0 0.099,0.023 0.134,0.061 0.034,0.036 0.056,0.087 0.056,0.141 0,0.055 -0.022,0.106 -0.056,0.142 -0.035,0.038 -0.083,0.061 -0.134,0.061l0 -0.048c0.037,0 0.073,-0.017 0.099,-0.045 0.026,-0.029 0.043,-0.068 0.043,-0.11 0,-0.041 -0.017,-0.08 -0.043,-0.109 -0.026,-0.028 -0.062,-0.045 -0.099,-0.045l0 -0.048zm0 0.095c0.027,0 0.051,0.013 0.069,0.033 0.016,0.019 0.027,0.046 0.027,0.074 0,0.029 -0.011,0.056 -0.027,0.075 -0.018,0.02 -0.042,0.033 -0.069,0.033l0 -0.048c0.012,0 0.024,-0.007 0.032,-0.016 0.01,-0.011 0.016,-0.026 0.016,-0.044 0,-0.017 -0.006,-0.032 -0.016,-0.043 -0.008,-0.009 -0.02,-0.016 -0.032,-0.016l0 -0.048zm-0.379 0.255c-0.016,-0.001 -0.031,-0.002 -0.047,-0.003l0.039 0.144 0.046 0 -0.038 -0.141zm-0.103 -0.051l0 -0.193 -0.048 0 0 0.193 0.048 0zm0.217 -0.212c-0.054,0.011 -0.111,0.017 -0.169,0.019l0 0.193c0.058,0.002 0.115,0.008 0.169,0.018 0.06,0.012 0.117,0.027 0.168,0.044l0 -0.317c-0.051,0.017 -0.108,0.032 -0.168,0.043z"></path></g></svg>