<svg height='200' width='200'  fill="#ffffff" xmlns="http://www.w3.org/2000/svg" xmlns:xlink="http://www.w3.org/1999/xlink" version="1.1" x="0px" y="0px" viewBox="0 0 100 100" enable-background="new 0 0 100 100" xml:space="preserve"><path d="M84.5,13.5h-68c-4.412,0-8,3.589-8,8v48c0,4.41,3.588,8,8,8h25.639l-1.332,8H34.5c-1.105,0-2,0.895-2,2c0,1.104,0.895,2,2,2  h8h16c0.014,0,0.029,0,0.039,0H66.5c1.105,0,2-0.896,2-2c0-1.105-0.895-2-2-2h-6.307l-1.332-8H84.5c4.412,0,8-3.59,8-8v-48  C92.5,17.089,88.912,13.5,84.5,13.5z M44.861,85.5l1.332-8h8.613l1.332,8H44.861z M88.5,69.5c0,2.205-1.795,4-4,4h-28h-12h-28  c-2.205,0-4-1.795-4-4v-4h76V69.5z M44.904,39.5l4-6h3.191l4,6H44.904z M56.5,43.5v18h-4v-18H56.5z M48.5,43.5v18h-4v-18H48.5z   M88.5,61.5h-28v-22c0-0.395-0.117-0.781-0.336-1.109l-8-12c-0.742-1.113-2.586-1.113-3.328,0l-8,12  C40.617,38.719,40.5,39.105,40.5,39.5v22h-28v-40c0-2.206,1.795-4,4-4h68c2.205,0,4,1.794,4,4V61.5z M50.5,71.5  c0.52,0,1.039-0.221,1.42-0.58c0.359-0.381,0.58-0.9,0.58-1.42c0-0.521-0.221-1.041-0.58-1.42c-0.76-0.74-2.1-0.74-2.84,0  c-0.361,0.379-0.58,0.898-0.58,1.42c0,0.52,0.219,1.039,0.58,1.42C49.459,71.279,49.98,71.5,50.5,71.5z"></path></svg>